<?xml version="1.0" standalone="no"?>
<svg xmlns="http://www.w3.org/2000/svg" xmlns:xlink="http://www.w3.org/1999/xlink" width="333pt" height="809pt" viewBox="0.00 0.00 332.53 809.00">
<g id="graph0" class="graph" transform="translate(25.377096540144123,698.3620037108252) scale(0.8021811663524864)" data-name="G">

<polygon fill="#2e3e56" stroke="transparent" points="-4,4 -4,-805 328.53,-805 328.53,4 -4,4" style=""/>
<g id="clust1" class="cluster" data-name="clusterPepsiMicDrop">

<path fill="#445773" stroke="#445773" d="M20,-93C20,-93 304.53,-93 304.53,-93 310.53,-93 316.53,-99 316.53,-105 316.53,-105 316.53,-644 316.53,-644 316.53,-650 310.53,-656 304.53,-656 304.53,-656 20,-656 20,-656 14,-656 8,-650 8,-644 8,-644 8,-105 8,-105 8,-99 14,-93 20,-93" style=""/>
<text text-anchor="middle" x="162.27" y="-639.4" font-family="Times,serif" font-size="14.00" fill="#f0f0f0" style="">PepsiMicDrop</text>
</g>
<g id="clust2" class="cluster" data-name="clusterproof">

<path fill="#3b4b63" stroke="#e8726d" stroke-dasharray="5,2" d="M228.25,-8C228.25,-8 288.43,-8 288.43,-8 294.43,-8 300.43,-14 300.43,-20 300.43,-20 300.43,-73 300.43,-73 300.43,-79 294.43,-85 288.43,-85 288.43,-85 228.25,-85 228.25,-85 222.25,-85 216.25,-79 216.25,-73 216.25,-73 216.25,-20 216.25,-20 216.25,-14 222.25,-8 228.25,-8" style=""/>
<text text-anchor="middle" x="258.34" y="-68.4" font-family="Times,serif" font-size="14.00" fill="#f0f0f0" style="">proof</text>
</g>
<g id="clust3" class="cluster" data-name="cluster_01">

<polygon fill="#2e3e56" stroke="black" points="21.07,-664 21.07,-793 293.34,-793 293.34,-664 21.07,-664" style=""/>
<text text-anchor="middle" x="157.21" y="-776.4" font-family="Times,serif" font-size="14.00" style="">Legend</text>
</g>
<!-- PepsiMicDrop._baseURI -->
<g id="node1" class="node" pointer-events="visible" data-name="PepsiMicDrop._baseURI">

<ellipse fill="#f2c383" stroke="#f2c383" stroke-width="3" cx="94.07" cy="-605" rx="49.81" ry="18" style=""/>
<text text-anchor="middle" x="94.07" y="-600.8" font-family="Times,serif" font-size="14.00" style="">_baseURI</text>
</g>
<!-- PepsiMicDrop.&lt;Constructor&gt; -->
<g id="node2" class="node" pointer-events="visible" data-name="PepsiMicDrop.&lt;Constructor&gt;">

<ellipse fill="#ff9797" stroke="#ff9797" stroke-width="3" cx="94.07" cy="-551" rx="67.55" ry="18" style=""/>
<text text-anchor="middle" x="94.07" y="-546.8" font-family="Times,serif" font-size="14.00" style="">&lt;Constructor&gt;</text>
</g>
<!-- PepsiMicDrop.setBaseURI -->
<g id="node3" class="node" pointer-events="visible" data-name="PepsiMicDrop.setBaseURI">

<ellipse fill="#ff9797" stroke="#ff9797" stroke-width="3" cx="94.07" cy="-497" rx="57.33" ry="18" style=""/>
<text text-anchor="middle" x="94.07" y="-492.8" font-family="Times,serif" font-size="14.00" style="">setBaseURI</text>
</g>
<!-- PepsiMicDrop.mint -->
<g id="node4" class="node" pointer-events="visible" data-name="PepsiMicDrop.mint">

<ellipse fill="#ff9797" stroke="#ff9797" stroke-width="3" cx="94.07" cy="-389" rx="28.99" ry="18" style=""/>
<text text-anchor="middle" x="94.07" y="-384.8" font-family="Times,serif" font-size="14.00" style="">mint</text>
</g>
<!-- PepsiMicDrop._safeMint -->
<g id="node11" class="node" pointer-events="visible" data-name="PepsiMicDrop._safeMint">

<ellipse fill="#edad56" stroke="#edad56" stroke-width="3" cx="258.34" cy="-416" rx="50.39" ry="18" style=""/>
<text text-anchor="middle" x="258.34" y="-411.8" font-family="Times,serif" font-size="14.00" style="">_safeMint</text>
</g>
<!-- PepsiMicDrop.mint&#45;&gt;PepsiMicDrop._safeMint -->
<g id="edge2" class="edge" data-name="PepsiMicDrop.mint-&gt;PepsiMicDrop._safeMint">

<path fill="none" stroke="#1bc6a6" stroke-width="2" d="M122.23,-393.52C144.07,-397.15 175.46,-402.38 202.49,-406.87" style=""/>
<polygon fill="#1bc6a6" stroke="#1bc6a6" stroke-width="2" points="202.17,-410.37 212.61,-408.56 203.32,-403.46 202.17,-410.37" style=""/>
</g>
<!-- proof.verify -->
<g id="node12" class="node" pointer-events="visible" data-name="proof.verify">

<ellipse fill="#edad56" stroke="#edad56" stroke-width="3" cx="258.34" cy="-34" rx="34.19" ry="18" style=""/>
<text text-anchor="middle" x="258.34" y="-29.8" font-family="Times,serif" font-size="14.00" style="">verify</text>
</g>
<!-- PepsiMicDrop.mint&#45;&gt;proof.verify -->
<g id="edge1" class="edge" data-name="PepsiMicDrop.mint-&gt;proof.verify">

<path fill="none" stroke="white" stroke-width="2" d="M122.74,-386.49C139.61,-383.45 160.17,-376.74 172.15,-362 249.34,-267.03 157.08,-200.22 208.15,-89 213.66,-76.99 222.71,-65.74 231.56,-56.57" style=""/>
<polygon fill="white" stroke="white" stroke-width="2" points="234.18,-58.9 238.86,-49.39 229.28,-53.91 234.18,-58.9" style=""/>
</g>
<!-- PepsiMicDrop.reserveMicDrops -->
<g id="node5" class="node" pointer-events="visible" data-name="PepsiMicDrop.reserveMicDrops">

<ellipse fill="#ff9797" stroke="#ff9797" stroke-width="3" cx="94.07" cy="-443" rx="78.15" ry="18" style=""/>
<text text-anchor="middle" x="94.07" y="-438.8" font-family="Times,serif" font-size="14.00" style="">reserveMicDrops</text>
</g>
<!-- PepsiMicDrop.reserveMicDrops&#45;&gt;PepsiMicDrop._safeMint -->
<g id="edge3" class="edge" data-name="PepsiMicDrop.reserveMicDrops-&gt;PepsiMicDrop._safeMint">

<path fill="none" stroke="#1bc6a6" stroke-width="2" d="M157.81,-432.56C172.45,-430.13 187.93,-427.55 202.22,-425.17" style=""/>
<polygon fill="#1bc6a6" stroke="#1bc6a6" stroke-width="2" points="203.08,-428.58 212.37,-423.48 201.93,-421.67 203.08,-428.58" style=""/>
</g>
<!-- PepsiMicDrop.startSale -->
<g id="node6" class="node" pointer-events="visible" data-name="PepsiMicDrop.startSale">

<ellipse fill="#ff9797" stroke="#ff9797" stroke-width="3" cx="94.07" cy="-335" rx="44.08" ry="18" style=""/>
<text text-anchor="middle" x="94.07" y="-330.8" font-family="Times,serif" font-size="14.00" style="">startSale</text>
</g>
<!-- PepsiMicDrop.pauseSale -->
<g id="node7" class="node" pointer-events="visible" data-name="PepsiMicDrop.pauseSale">

<ellipse fill="#ff9797" stroke="#ff9797" stroke-width="3" cx="94.07" cy="-281" rx="49.8" ry="18" style=""/>
<text text-anchor="middle" x="94.07" y="-276.8" font-family="Times,serif" font-size="14.00" style="">pauseSale</text>
</g>
<!-- PepsiMicDrop.setMerkleRoot -->
<g id="node8" class="node" pointer-events="visible" data-name="PepsiMicDrop.setMerkleRoot">

<ellipse fill="#ff9797" stroke="#ff9797" stroke-width="3" cx="94.07" cy="-227" rx="68.36" ry="18" style=""/>
<text text-anchor="middle" x="94.07" y="-222.8" font-family="Times,serif" font-size="14.00" style="">setMerkleRoot</text>
</g>
<!-- PepsiMicDrop.startMerkle -->
<g id="node9" class="node" pointer-events="visible" data-name="PepsiMicDrop.startMerkle">

<ellipse fill="#ff9797" stroke="#ff9797" stroke-width="3" cx="94.07" cy="-173" rx="55.6" ry="18" style=""/>
<text text-anchor="middle" x="94.07" y="-168.8" font-family="Times,serif" font-size="14.00" style="">startMerkle</text>
</g>
<!-- PepsiMicDrop.stopMerkle -->
<g id="node10" class="node" pointer-events="visible" data-name="PepsiMicDrop.stopMerkle">

<ellipse fill="#ff9797" stroke="#ff9797" stroke-width="3" cx="94.07" cy="-119" rx="55.04" ry="18" style=""/>
<text text-anchor="middle" x="94.07" y="-114.8" font-family="Times,serif" font-size="14.00" style="">stopMerkle</text>
</g>
<!-- key -->
<g id="node13" class="node" pointer-events="visible" data-name="key">

<polygon fill="#edad56" stroke="transparent" stroke-width="3" points="159.07,-760 29.07,-760 29.07,-672 159.07,-672 159.07,-760" style=""/>
<text text-anchor="start" x="78.71" y="-741.4" font-family="Times,serif" font-size="14.00" style="">Internal Call</text>
<text text-anchor="start" x="74.82" y="-721.4" font-family="Times,serif" font-size="14.00" style="">External Call</text>
<text text-anchor="start" x="52.28" y="-701.4" font-family="Times,serif" font-size="14.00" style="">Defined Contract</text>
<text text-anchor="start" x="38.68" y="-681.4" font-family="Times,serif" font-size="14.00" style="">Undefined Contract</text>
</g>
<!-- key2 -->
<g id="node14" class="node" pointer-events="visible" data-name="key2">

<polygon fill="#edad56" stroke="transparent" stroke-width="3" points="285.34,-760 231.34,-760 231.34,-672 285.34,-672 285.34,-760" style=""/>
<text text-anchor="start" x="248.34" y="-741.4" font-family="Times,serif" font-size="14.00" style="">   </text>
<text text-anchor="start" x="248.34" y="-721.4" font-family="Times,serif" font-size="14.00" style="">   </text>
<polygon fill="#445773" stroke="transparent" points="246.34,-696 246.34,-716 271.34,-716 271.34,-696 246.34,-696" style=""/>
<text text-anchor="start" x="248.34" y="-701.4" font-family="Times,serif" font-size="14.00" style="">   </text>
<polygon fill="none" stroke="#e8726d" points="248.34,-678 248.34,-694 269.34,-694 269.34,-678 248.34,-678" style=""/>
</g>
<!-- key&#45;&gt;key2 -->
<g id="edge4" class="edge" data-name="key-&gt;key2">

<path fill="none" stroke="#1bc6a6" stroke-width="2" d="M152.07,-746C189.96,-746 201.88,-746 235.3,-746" style=""/>
<polygon fill="#1bc6a6" stroke="#1bc6a6" stroke-width="2" points="235.34,-749.5 245.34,-746 235.34,-742.5 235.34,-749.5" style=""/>
</g>
<!-- key&#45;&gt;key2 -->
<g id="edge5" class="edge" data-name="key-&gt;key2">

<path fill="none" stroke="white" stroke-width="2" d="M152.07,-726C189.96,-726 201.88,-726 235.3,-726" style=""/>
<polygon fill="white" stroke="white" stroke-width="2" points="235.34,-729.5 245.34,-726 235.34,-722.5 235.34,-729.5" style=""/>
</g>
</g>
</svg>