<?xml version="1.0" standalone="no"?>
<svg xmlns="http://www.w3.org/2000/svg" xmlns:xlink="http://www.w3.org/1999/xlink" width="300pt" height="116pt" viewBox="0.00 0.00 299.85 116.00">
<g id="graph0" class="graph" transform="translate(4,112) scale(1)" data-name="G">

<polygon fill="white" stroke="transparent" points="-4,4 -4,-112 295.85,-112 295.85,4 -4,4" style=""/>
<!-- PepsiMicDrop -->
<g id="node1" class="node" pointer-events="visible" data-name="PepsiMicDrop">

<ellipse fill="none" stroke="black" cx="167.96" cy="-90" rx="67.23" ry="18" style=""/>
<text text-anchor="middle" x="167.96" y="-85.8" font-family="Times,serif" font-size="14.00" style="">PepsiMicDrop</text>
</g>
<!-- ERC721Enumerable -->
<g id="node2" class="node" pointer-events="visible" data-name="ERC721Enumerable">

<ellipse fill="none" stroke="black" cx="90.96" cy="-18" rx="90.91" ry="18" style=""/>
<text text-anchor="middle" x="90.96" y="-13.8" font-family="Times,serif" font-size="14.00" style="">ERC721Enumerable</text>
</g>
<!-- PepsiMicDrop&#45;&gt;ERC721Enumerable -->
<g id="edge1" class="edge" data-name="PepsiMicDrop-&gt;ERC721Enumerable">

<path fill="none" stroke="black" d="M149.71,-72.41C139.9,-63.5 127.65,-52.36 116.87,-42.56" style=""/>
<polygon fill="black" stroke="black" points="119.09,-39.85 109.34,-35.71 114.39,-45.03 119.09,-39.85" style=""/>
</g>
<!-- Ownable -->
<g id="node3" class="node" pointer-events="visible" data-name="Ownable">

<ellipse fill="none" stroke="black" cx="245.96" cy="-18" rx="45.79" ry="18" style=""/>
<text text-anchor="middle" x="245.96" y="-13.8" font-family="Times,serif" font-size="14.00" style="">Ownable</text>
</g>
<!-- PepsiMicDrop&#45;&gt;Ownable -->
<g id="edge2" class="edge" data-name="PepsiMicDrop-&gt;Ownable">

<path fill="none" stroke="black" d="M186.44,-72.41C196.66,-63.24 209.52,-51.7 220.66,-41.7" style=""/>
<polygon fill="black" stroke="black" points="223.3,-44.03 228.41,-34.75 218.63,-38.82 223.3,-44.03" style=""/>
</g>
</g>
</svg>